<mxfile host="app.diagrams.net" modified="2022-01-22T19:39:03.029Z" agent="5.0 (Windows NT 10.0; Win64; x64) AppleWebKit/537.36 (KHTML, like Gecko) Chrome/97.0.4692.71 Safari/537.36" etag="Nk3ScsZBARGe24gtyk76" version="16.4.5" type="github">
  <diagram id="FdcYQjDbwHpzMvA2prWP" name="Page-1">
    <mxGraphModel dx="1038" dy="579" grid="1" gridSize="10" guides="1" tooltips="1" connect="1" arrows="1" fold="1" page="1" pageScale="1" pageWidth="850" pageHeight="1100" math="0" shadow="0">
      <root>
        <mxCell id="0" />
        <mxCell id="1" parent="0" />
        <mxCell id="6voSHcXXVBX3k06lsxQZ-23" value="" style="edgeStyle=orthogonalEdgeStyle;rounded=0;orthogonalLoop=1;jettySize=auto;html=1;" edge="1" parent="1" source="6voSHcXXVBX3k06lsxQZ-3">
          <mxGeometry relative="1" as="geometry">
            <mxPoint x="233" y="284" as="targetPoint" />
            <Array as="points">
              <mxPoint x="130" y="331" />
              <mxPoint x="130" y="310" />
              <mxPoint x="233" y="310" />
            </Array>
          </mxGeometry>
        </mxCell>
        <mxCell id="6voSHcXXVBX3k06lsxQZ-3" value="" style="rounded=0;whiteSpace=wrap;html=1;" vertex="1" parent="1">
          <mxGeometry x="40" y="321" width="80" height="20" as="geometry" />
        </mxCell>
        <mxCell id="6voSHcXXVBX3k06lsxQZ-4" value="" style="rounded=0;whiteSpace=wrap;html=1;" vertex="1" parent="1">
          <mxGeometry x="40" y="341" width="80" height="20" as="geometry" />
        </mxCell>
        <mxCell id="6voSHcXXVBX3k06lsxQZ-5" value="" style="rounded=0;whiteSpace=wrap;html=1;" vertex="1" parent="1">
          <mxGeometry x="40" y="361" width="80" height="20" as="geometry" />
        </mxCell>
        <mxCell id="6voSHcXXVBX3k06lsxQZ-6" value="" style="rounded=0;whiteSpace=wrap;html=1;" vertex="1" parent="1">
          <mxGeometry x="40" y="379" width="80" height="20" as="geometry" />
        </mxCell>
        <mxCell id="6voSHcXXVBX3k06lsxQZ-7" value="" style="rounded=0;whiteSpace=wrap;html=1;" vertex="1" parent="1">
          <mxGeometry x="40" y="399" width="80" height="20" as="geometry" />
        </mxCell>
        <mxCell id="6voSHcXXVBX3k06lsxQZ-9" value="" style="rounded=0;whiteSpace=wrap;html=1;fillColor=#F7FFD1;strokeColor=#36393d;" vertex="1" parent="1">
          <mxGeometry x="202" y="481" width="40" height="20" as="geometry" />
        </mxCell>
        <mxCell id="6voSHcXXVBX3k06lsxQZ-10" value="" style="rounded=0;whiteSpace=wrap;html=1;fillColor=#ffff88;strokeColor=#36393d;" vertex="1" parent="1">
          <mxGeometry x="242" y="481" width="40" height="20" as="geometry" />
        </mxCell>
        <mxCell id="6voSHcXXVBX3k06lsxQZ-12" value="" style="rounded=0;whiteSpace=wrap;html=1;fillColor=#ffcccc;strokeColor=#36393d;" vertex="1" parent="1">
          <mxGeometry x="201" y="439" width="40" height="20" as="geometry" />
        </mxCell>
        <mxCell id="6voSHcXXVBX3k06lsxQZ-13" value="" style="rounded=0;whiteSpace=wrap;html=1;fillColor=#ffcccc;strokeColor=#36393d;" vertex="1" parent="1">
          <mxGeometry x="241" y="439" width="40" height="20" as="geometry" />
        </mxCell>
        <mxCell id="6voSHcXXVBX3k06lsxQZ-14" value="" style="rounded=0;whiteSpace=wrap;html=1;fillColor=#ffcccc;strokeColor=#36393d;" vertex="1" parent="1">
          <mxGeometry x="281" y="439" width="40" height="20" as="geometry" />
        </mxCell>
        <mxCell id="6voSHcXXVBX3k06lsxQZ-15" value="Multi-head cross attention" style="rounded=1;whiteSpace=wrap;html=1;" vertex="1" parent="1">
          <mxGeometry x="160" y="240" width="200" height="41" as="geometry" />
        </mxCell>
        <mxCell id="6voSHcXXVBX3k06lsxQZ-16" value="" style="verticalLabelPosition=bottom;verticalAlign=top;html=1;shape=mxgraph.flowchart.summing_function;" vertex="1" parent="1">
          <mxGeometry x="252" y="391" width="20" height="20" as="geometry" />
        </mxCell>
        <mxCell id="6voSHcXXVBX3k06lsxQZ-17" value="" style="shape=image;html=1;verticalLabelPosition=bottom;verticalAlign=top;imageAspect=1;aspect=fixed;image=img/clipart/Gear_128x128.png" vertex="1" parent="1">
          <mxGeometry x="180" y="389" width="21" height="24.63" as="geometry" />
        </mxCell>
        <mxCell id="6voSHcXXVBX3k06lsxQZ-18" value="" style="endArrow=classic;html=1;rounded=0;entryX=0;entryY=0.5;entryDx=0;entryDy=0;entryPerimeter=0;" edge="1" parent="1" target="6voSHcXXVBX3k06lsxQZ-16">
          <mxGeometry width="50" height="50" relative="1" as="geometry">
            <mxPoint x="200" y="401" as="sourcePoint" />
            <mxPoint x="252" y="349" as="targetPoint" />
          </mxGeometry>
        </mxCell>
        <mxCell id="6voSHcXXVBX3k06lsxQZ-19" value="" style="endArrow=classic;html=1;rounded=0;entryX=0.5;entryY=1;entryDx=0;entryDy=0;entryPerimeter=0;exitX=0.5;exitY=0;exitDx=0;exitDy=0;" edge="1" parent="1" source="6voSHcXXVBX3k06lsxQZ-13" target="6voSHcXXVBX3k06lsxQZ-16">
          <mxGeometry width="50" height="50" relative="1" as="geometry">
            <mxPoint x="260" y="460" as="sourcePoint" />
            <mxPoint x="310" y="410" as="targetPoint" />
          </mxGeometry>
        </mxCell>
        <mxCell id="6voSHcXXVBX3k06lsxQZ-20" value="" style="endArrow=classic;html=1;rounded=0;" edge="1" parent="1">
          <mxGeometry width="50" height="50" relative="1" as="geometry">
            <mxPoint x="260" y="390" as="sourcePoint" />
            <mxPoint x="260" y="280" as="targetPoint" />
          </mxGeometry>
        </mxCell>
        <mxCell id="6voSHcXXVBX3k06lsxQZ-24" value="" style="endArrow=classic;html=1;rounded=0;entryX=0.25;entryY=1;entryDx=0;entryDy=0;" edge="1" parent="1">
          <mxGeometry width="50" height="50" relative="1" as="geometry">
            <mxPoint x="191" y="310" as="sourcePoint" />
            <mxPoint x="191" y="281" as="targetPoint" />
          </mxGeometry>
        </mxCell>
        <mxCell id="6voSHcXXVBX3k06lsxQZ-28" value="" style="endArrow=classic;html=1;rounded=0;entryX=0.75;entryY=1;entryDx=0;entryDy=0;" edge="1" parent="1">
          <mxGeometry width="50" height="50" relative="1" as="geometry">
            <mxPoint x="264" y="480" as="sourcePoint" />
            <mxPoint x="265" y="459" as="targetPoint" />
          </mxGeometry>
        </mxCell>
        <mxCell id="6voSHcXXVBX3k06lsxQZ-29" value="" style="rounded=0;whiteSpace=wrap;html=1;fillColor=#F7FFD1;strokeColor=#36393d;" vertex="1" parent="1">
          <mxGeometry x="282" y="481" width="40" height="20" as="geometry" />
        </mxCell>
      </root>
    </mxGraphModel>
  </diagram>
</mxfile>
